<svg width="77" height="16" viewBox="0 0 77 16" fill="none" xmlns="http://www.w3.org/2000/svg">
<path d="M3.72264 5.05044H4.79917L6.24086 8.56931H6.29777L7.73947 5.05044H8.816V9.90668H7.97185V6.57038H7.92679L6.58469 9.89245H5.95395L4.61184 6.56327H4.56679V9.90668H3.72264V5.05044ZM11.3485 9.97781C10.9833 9.97781 10.6679 9.90193 10.4023 9.75018C10.1383 9.59684 9.93521 9.38027 9.79294 9.10047C9.65067 8.81908 9.57953 8.4879 9.57953 8.10693C9.57953 7.73228 9.65067 7.40347 9.79294 7.1205C9.93679 6.83596 10.1376 6.61465 10.3952 6.45656C10.6529 6.2969 10.9556 6.21707 11.3034 6.21707C11.5279 6.21707 11.7397 6.25343 11.9389 6.32615C12.1396 6.39728 12.3167 6.50794 12.47 6.65812C12.625 6.80829 12.7467 6.99957 12.8352 7.23195C12.9237 7.46275 12.968 7.73781 12.968 8.05713V8.32034H9.98263V7.74176H12.1452C12.1436 7.57736 12.108 7.43113 12.0385 7.30309C11.9689 7.17346 11.8717 7.0715 11.7468 6.9972C11.6235 6.9229 11.4797 6.88575 11.3153 6.88575C11.1398 6.88575 10.9857 6.92844 10.8529 7.0138C10.7201 7.09758 10.6165 7.20824 10.5422 7.34577C10.4695 7.48172 10.4324 7.6311 10.4308 7.79393V8.299C10.4308 8.51082 10.4695 8.69262 10.547 8.84437C10.6244 8.99455 10.7327 9.10995 10.8718 9.19057C11.0109 9.26961 11.1738 9.30913 11.3603 9.30913C11.4852 9.30913 11.5982 9.29174 11.6994 9.25697C11.8006 9.22061 11.8883 9.16765 11.9626 9.09809C12.0369 9.02854 12.093 8.94238 12.131 8.83963L12.9324 8.92974C12.8818 9.14157 12.7854 9.32652 12.6431 9.4846C12.5024 9.6411 12.3222 9.76282 12.1025 9.84977C11.8828 9.93513 11.6314 9.97781 11.3485 9.97781ZM15.3066 9.97781C14.9414 9.97781 14.6261 9.90193 14.3605 9.75018C14.0965 9.59684 13.8934 9.38027 13.7511 9.10047C13.6088 8.81908 13.5377 8.4879 13.5377 8.10693C13.5377 7.73228 13.6088 7.40347 13.7511 7.1205C13.8949 6.83596 14.0957 6.61465 14.3534 6.45656C14.611 6.2969 14.9138 6.21707 15.2615 6.21707C15.486 6.21707 15.6978 6.25343 15.897 6.32615C16.0978 6.39728 16.2748 6.50794 16.4282 6.65812C16.5831 6.80829 16.7048 6.99957 16.7933 7.23195C16.8819 7.46275 16.9261 7.73781 16.9261 8.05713V8.32034H13.9408V7.74176H16.1033C16.1017 7.57736 16.0662 7.43113 15.9966 7.30309C15.9271 7.17346 15.8298 7.0715 15.705 6.9972C15.5817 6.9229 15.4378 6.88575 15.2734 6.88575C15.0979 6.88575 14.9438 6.92844 14.811 7.0138C14.6782 7.09758 14.5747 7.20824 14.5004 7.34577C14.4277 7.48172 14.3905 7.6311 14.3889 7.79393V8.299C14.3889 8.51082 14.4277 8.69262 14.5051 8.84437C14.5826 8.99455 14.6909 9.10995 14.83 9.19057C14.9691 9.26961 15.1319 9.30913 15.3185 9.30913C15.4433 9.30913 15.5564 9.29174 15.6575 9.25697C15.7587 9.22061 15.8464 9.16765 15.9207 9.09809C15.995 9.02854 16.0512 8.94238 16.0891 8.83963L16.8906 8.92974C16.84 9.14157 16.7436 9.32652 16.6013 9.4846C16.4606 9.6411 16.2804 9.76282 16.0606 9.84977C15.8409 9.93513 15.5896 9.97781 15.3066 9.97781ZM19.471 6.2645V6.92844H17.3773V6.2645H19.471ZM17.8942 5.39189H18.7526V8.81118C18.7526 8.92658 18.7699 9.0151 18.8047 9.07675C18.8411 9.13682 18.8885 9.17792 18.947 9.20006C19.0055 9.22219 19.0703 9.23325 19.1414 9.23325C19.1952 9.23325 19.2442 9.2293 19.2885 9.2214C19.3343 9.21349 19.3691 9.20638 19.3928 9.20006L19.5374 9.87111C19.4916 9.88692 19.426 9.90431 19.3406 9.92328C19.2568 9.94225 19.1541 9.95331 19.0324 9.95647C18.8174 9.9628 18.6237 9.93039 18.4514 9.85925C18.2791 9.78654 18.1424 9.6743 18.0412 9.52254C17.9416 9.37078 17.8926 9.18109 17.8942 8.95345V5.39189ZM22.8933 9.98018C22.6625 9.98018 22.4546 9.93908 22.2697 9.85688C22.0863 9.7731 21.9409 9.6498 21.8334 9.48697C21.7274 9.32415 21.6745 9.12339 21.6745 8.88469C21.6745 8.67918 21.7124 8.50924 21.7883 8.37487C21.8642 8.24051 21.9677 8.13301 22.0989 8.05239C22.2301 7.97177 22.3779 7.91091 22.5423 7.86981C22.7083 7.82712 22.8799 7.7963 23.0569 7.77733C23.2703 7.7552 23.4434 7.73544 23.5762 7.71805C23.709 7.69908 23.8054 7.67062 23.8655 7.63269C23.9271 7.59317 23.958 7.5323 23.958 7.4501V7.43588C23.958 7.25724 23.905 7.11892 23.7991 7.02091C23.6932 6.9229 23.5406 6.8739 23.3414 6.8739C23.1312 6.8739 22.9644 6.91974 22.8411 7.01143C22.7194 7.10311 22.6372 7.2114 22.5945 7.33628L21.793 7.22247C21.8563 7.00115 21.9606 6.8162 22.106 6.6676C22.2515 6.51743 22.4293 6.40519 22.6396 6.33089C22.8498 6.25501 23.0822 6.21707 23.3367 6.21707C23.5122 6.21707 23.6869 6.23762 23.8607 6.27872C24.0346 6.31982 24.1935 6.3878 24.3374 6.48265C24.4812 6.57592 24.5966 6.70317 24.6836 6.86441C24.7721 7.02566 24.8163 7.22721 24.8163 7.46907V9.90668H23.9912V9.40635H23.9627C23.9105 9.50752 23.837 9.60237 23.7422 9.6909C23.6489 9.77784 23.5311 9.84819 23.3889 9.90193C23.2482 9.9541 23.083 9.98018 22.8933 9.98018ZM23.1162 9.34944C23.2885 9.34944 23.4379 9.31546 23.5643 9.24748C23.6908 9.17792 23.788 9.08624 23.856 8.97242C23.9256 8.8586 23.9603 8.73451 23.9603 8.60014V8.17095C23.9335 8.19308 23.8876 8.21363 23.8228 8.2326C23.7596 8.25157 23.6884 8.26817 23.6094 8.2824C23.5304 8.29662 23.4521 8.30927 23.3746 8.32034C23.2972 8.3314 23.23 8.34089 23.1731 8.34879C23.045 8.36618 22.9304 8.39463 22.8293 8.43415C22.7281 8.47368 22.6483 8.529 22.5898 8.60014C22.5313 8.6697 22.502 8.7598 22.502 8.87046C22.502 9.02854 22.5597 9.14789 22.6751 9.22851C22.7905 9.30913 22.9376 9.34944 23.1162 9.34944ZM26.5378 5.05044V9.90668H25.6795V5.05044H26.5378ZM28.2789 5.05044V9.90668H27.4205V5.05044H28.2789ZM32.4066 9.97781C32.043 9.97781 31.7308 9.89798 31.47 9.73832C31.2107 9.57866 31.0107 9.35814 30.87 9.07675C30.7309 8.79379 30.6614 8.46814 30.6614 8.09981C30.6614 7.72991 30.7325 7.40347 30.8748 7.1205C31.0171 6.83596 31.2178 6.61465 31.4771 6.45656C31.7379 6.2969 32.0462 6.21707 32.4018 6.21707C32.6975 6.21707 32.9591 6.27161 33.1867 6.38069C33.4159 6.48818 33.5985 6.64073 33.7345 6.83833C33.8704 7.03435 33.9479 7.26357 33.9668 7.52598H33.1464C33.1132 7.35051 33.0342 7.20429 32.9093 7.08731C32.786 6.96875 32.6208 6.90947 32.4137 6.90947C32.2382 6.90947 32.0841 6.95689 31.9513 7.05174C31.8185 7.14501 31.715 7.27938 31.6407 7.45484C31.568 7.63031 31.5316 7.84056 31.5316 8.08559C31.5316 8.33377 31.568 8.54718 31.6407 8.72581C31.7134 8.90286 31.8154 9.0396 31.9466 9.13603C32.0794 9.23088 32.2351 9.27831 32.4137 9.27831C32.5402 9.27831 32.6532 9.25459 32.7528 9.20717C32.854 9.15816 32.9385 9.08782 33.0065 8.99613C33.0745 8.90445 33.1211 8.793 33.1464 8.66179H33.9668C33.9463 8.91946 33.8704 9.14789 33.7392 9.34707C33.608 9.54467 33.4294 9.69959 33.2033 9.81183C32.9773 9.92249 32.7117 9.97781 32.4066 9.97781ZM36.9931 8.37487V6.2645H37.8515V9.90668H37.0192V9.25934H36.9812C36.899 9.46326 36.7639 9.63004 36.5758 9.75966C36.3892 9.88929 36.1592 9.9541 35.8857 9.9541C35.647 9.9541 35.436 9.90114 35.2526 9.79523C35.0708 9.68774 34.9286 9.53203 34.8258 9.3281C34.7231 9.1226 34.6717 8.87441 34.6717 8.58354V6.2645H35.5301V8.45075C35.5301 8.68155 35.5933 8.86493 35.7198 9.00087C35.8462 9.13682 36.0122 9.2048 36.2177 9.2048C36.3442 9.2048 36.4667 9.17397 36.5853 9.11232C36.7038 9.05067 36.801 8.95898 36.8769 8.83726C36.9544 8.71396 36.9931 8.55983 36.9931 8.37487ZM41.6128 7.22721L40.8303 7.31257C40.8082 7.23353 40.7695 7.15923 40.7141 7.08968C40.6604 7.02012 40.5877 6.964 40.496 6.92132C40.4043 6.87864 40.292 6.8573 40.1593 6.8573C39.9806 6.8573 39.8305 6.89603 39.7087 6.97349C39.5886 7.05095 39.5293 7.15133 39.5309 7.27463C39.5293 7.38055 39.568 7.4667 39.6471 7.53309C39.7277 7.59949 39.8605 7.65403 40.0454 7.69671L40.6667 7.8295C41.0113 7.90379 41.2674 8.02156 41.435 8.18281C41.6041 8.34405 41.6895 8.55509 41.6911 8.81592C41.6895 9.04514 41.6223 9.24748 41.4895 9.42295C41.3583 9.59684 41.1757 9.73279 40.9418 9.8308C40.7078 9.92881 40.4391 9.97781 40.1355 9.97781C39.6898 9.97781 39.3309 9.88455 39.059 9.69801C38.7871 9.50989 38.6251 9.24827 38.5729 8.91314L39.41 8.83252C39.4479 8.99692 39.5285 9.12102 39.6518 9.2048C39.7751 9.28858 39.9356 9.33047 40.1332 9.33047C40.3371 9.33047 40.5007 9.28858 40.624 9.2048C40.7489 9.12102 40.8113 9.01747 40.8113 8.89417C40.8113 8.78984 40.771 8.70368 40.6904 8.63571C40.6114 8.56773 40.4881 8.51557 40.3205 8.47921L39.6992 8.34879C39.3499 8.27607 39.0914 8.15356 38.9239 7.98125C38.7563 7.80736 38.6733 7.58763 38.6749 7.32206C38.6733 7.09758 38.7342 6.90314 38.8575 6.73874C38.9823 6.57275 39.1554 6.44471 39.3768 6.3546C39.5997 6.26292 39.8565 6.21707 40.1474 6.21707C40.5742 6.21707 40.9101 6.30797 41.1552 6.48976C41.4018 6.67155 41.5543 6.91737 41.6128 7.22721ZM44.2176 6.2645V6.92844H42.1238V6.2645H44.2176ZM42.6407 5.39189H43.4991V8.81118C43.4991 8.92658 43.5165 9.0151 43.5513 9.07675C43.5876 9.13682 43.6351 9.17792 43.6936 9.20006C43.752 9.22219 43.8169 9.23325 43.888 9.23325C43.9417 9.23325 43.9907 9.2293 44.035 9.2214C44.0808 9.21349 44.1156 9.20638 44.1393 9.20006L44.284 9.87111C44.2381 9.88692 44.1725 9.90431 44.0872 9.92328C44.0034 9.94225 43.9006 9.95331 43.7789 9.95647C43.5639 9.9628 43.3703 9.93039 43.198 9.85925C43.0257 9.78654 42.8889 9.6743 42.7877 9.52254C42.6882 9.37078 42.6392 9.18109 42.6407 8.95345V5.39189ZM46.4851 9.97781C46.1294 9.97781 45.8211 9.89956 45.5603 9.74306C45.2995 9.58656 45.0971 9.36762 44.9533 9.08624C44.811 8.80485 44.7398 8.47605 44.7398 8.09981C44.7398 7.72358 44.811 7.39398 44.9533 7.11102C45.0971 6.82805 45.2995 6.60832 45.5603 6.45182C45.8211 6.29532 46.1294 6.21707 46.4851 6.21707C46.8407 6.21707 47.149 6.29532 47.4098 6.45182C47.6707 6.60832 47.8722 6.82805 48.0145 7.11102C48.1583 7.39398 48.2303 7.72358 48.2303 8.09981C48.2303 8.47605 48.1583 8.80485 48.0145 9.08624C47.8722 9.36762 47.6707 9.58656 47.4098 9.74306C47.149 9.89956 46.8407 9.97781 46.4851 9.97781ZM46.4898 9.29016C46.6827 9.29016 46.8439 9.23721 46.9735 9.13129C47.1032 9.0238 47.1996 8.87994 47.2628 8.69973C47.3276 8.51952 47.36 8.31876 47.36 8.09744C47.36 7.87455 47.3276 7.673 47.2628 7.49278C47.1996 7.31099 47.1032 7.16635 46.9735 7.05885C46.8439 6.95136 46.6827 6.89761 46.4898 6.89761C46.2922 6.89761 46.1278 6.95136 45.9966 7.05885C45.867 7.16635 45.7697 7.31099 45.7049 7.49278C45.6417 7.673 45.6101 7.87455 45.6101 8.09744C45.6101 8.31876 45.6417 8.51952 45.7049 8.69973C45.7697 8.87994 45.867 9.0238 45.9966 9.13129C46.1278 9.23721 46.2922 9.29016 46.4898 9.29016ZM48.9588 9.90668V6.2645H49.7793V6.88338H49.8219C49.8978 6.67472 50.0235 6.51189 50.199 6.39491C50.3744 6.27635 50.5839 6.21707 50.8273 6.21707C51.0739 6.21707 51.2818 6.27714 51.451 6.39728C51.6217 6.51584 51.7418 6.67788 51.8114 6.88338H51.8493C51.93 6.68104 52.0659 6.5198 52.2572 6.39966C52.45 6.27793 52.6785 6.21707 52.9425 6.21707C53.2776 6.21707 53.5511 6.32299 53.7629 6.53481C53.9747 6.74664 54.0806 7.05569 54.0806 7.46196V9.90668H53.2199V7.59475C53.2199 7.36869 53.1598 7.2035 53.0397 7.09916C52.9195 6.99325 52.7725 6.94029 52.5986 6.94029C52.3915 6.94029 52.2295 7.0051 52.1125 7.13473C51.9971 7.26278 51.9394 7.42955 51.9394 7.63506V9.90668H51.0977V7.55918C51.0977 7.37106 51.0407 7.22089 50.9269 7.10865C50.8147 6.99641 50.6677 6.94029 50.4859 6.94029C50.3626 6.94029 50.2503 6.97191 50.1492 7.03514C50.048 7.09679 49.9674 7.18453 49.9073 7.29834C49.8472 7.41058 49.8172 7.54179 49.8172 7.69197V9.90668H48.9588ZM56.5639 9.97781C56.1987 9.97781 55.8834 9.90193 55.6178 9.75018C55.3538 9.59684 55.1507 9.38027 55.0084 9.10047C54.8661 8.81908 54.795 8.4879 54.795 8.10693C54.795 7.73228 54.8661 7.40347 55.0084 7.1205C55.1522 6.83596 55.353 6.61465 55.6107 6.45656C55.8683 6.2969 56.1711 6.21707 56.5188 6.21707C56.7433 6.21707 56.9551 6.25343 57.1543 6.32615C57.3551 6.39728 57.5321 6.50794 57.6855 6.65812C57.8404 6.80829 57.9621 6.99957 58.0506 7.23195C58.1392 7.46275 58.1834 7.73781 58.1834 8.05713V8.32034H55.1981V7.74176H57.3606C57.359 7.57736 57.3235 7.43113 57.2539 7.30309C57.1844 7.17346 57.0871 7.0715 56.9623 6.9972C56.839 6.9229 56.6951 6.88575 56.5307 6.88575C56.3552 6.88575 56.2011 6.92844 56.0683 7.0138C55.9355 7.09758 55.832 7.20824 55.7577 7.34577C55.685 7.48172 55.6478 7.6311 55.6462 7.79393V8.299C55.6462 8.51082 55.685 8.69262 55.7624 8.84437C55.8399 8.99455 55.9482 9.10995 56.0873 9.19057C56.2264 9.26961 56.3892 9.30913 56.5758 9.30913C56.7006 9.30913 56.8137 9.29174 56.9148 9.25697C57.016 9.22061 57.1037 9.16765 57.178 9.09809C57.2523 9.02854 57.3085 8.94238 57.3464 8.83963L58.1479 8.92974C58.0973 9.14157 58.0008 9.32652 57.8586 9.4846C57.7179 9.6411 57.5377 9.76282 57.3179 9.84977C57.0982 9.93513 56.8469 9.97781 56.5639 9.97781ZM58.9096 9.90668V6.2645H59.7419V6.87153H59.7799C59.8462 6.66128 59.9601 6.49925 60.1213 6.38543C60.2841 6.27003 60.4699 6.21233 60.6785 6.21233C60.726 6.21233 60.7789 6.2147 60.8374 6.21944C60.8975 6.22261 60.9473 6.22814 60.9868 6.23604V7.02566C60.9504 7.01301 60.8927 7.00194 60.8137 6.99246C60.7362 6.98139 60.6612 6.97586 60.5884 6.97586C60.4319 6.97586 60.2912 7.00985 60.1664 7.07782C60.0431 7.14422 59.9458 7.23669 59.8747 7.35525C59.8036 7.47381 59.768 7.61055 59.768 7.76547V9.90668H58.9096ZM64.4357 7.22721L63.6532 7.31257C63.6311 7.23353 63.5924 7.15923 63.537 7.08968C63.4833 7.02012 63.4106 6.964 63.3189 6.92132C63.2272 6.87864 63.115 6.8573 62.9822 6.8573C62.8035 6.8573 62.6534 6.89603 62.5316 6.97349C62.4115 7.05095 62.3522 7.15133 62.3538 7.27463C62.3522 7.38055 62.3909 7.4667 62.47 7.53309C62.5506 7.59949 62.6834 7.65403 62.8684 7.69671L63.4896 7.8295C63.8342 7.90379 64.0903 8.02156 64.2579 8.18281C64.427 8.34405 64.5124 8.55509 64.514 8.81592C64.5124 9.04514 64.4452 9.24748 64.3124 9.42295C64.1812 9.59684 63.9986 9.73279 63.7647 9.8308C63.5307 9.92881 63.262 9.97781 62.9585 9.97781C62.5127 9.97781 62.1538 9.88455 61.8819 9.69801C61.61 9.50989 61.448 9.24827 61.3958 8.91314L62.2329 8.83252C62.2708 8.99692 62.3514 9.12102 62.4747 9.2048C62.598 9.28858 62.7585 9.33047 62.9561 9.33047C63.16 9.33047 63.3236 9.28858 63.4469 9.2048C63.5718 9.12102 63.6343 9.01747 63.6343 8.89417C63.6343 8.78984 63.5939 8.70368 63.5133 8.63571C63.4343 8.56773 63.311 8.51557 63.1434 8.47921L62.5222 8.34879C62.1728 8.27607 61.9143 8.15356 61.7468 7.98125C61.5792 7.80736 61.4962 7.58763 61.4978 7.32206C61.4962 7.09758 61.5571 6.90314 61.6804 6.73874C61.8053 6.57275 61.9784 6.44471 62.1997 6.3546C62.4226 6.26292 62.6794 6.21707 62.9703 6.21707C63.3971 6.21707 63.7331 6.30797 63.9781 6.48976C64.2247 6.67155 64.3772 6.91737 64.4357 7.22721Z" fill="#4CAF4F"/>
<path d="M74.0232 9.24222L75.1226 8.14283C75.253 8.01245 75.253 7.80106 75.1226 7.67068L74.0232 6.57129M75.0248 7.90676L70.3507 7.90676" stroke="#4CAF4F" stroke-width="0.5008" stroke-linecap="round"/>
</svg>
