<svg width="96" height="17" viewBox="0 0 96 17" fill="none" xmlns="http://www.w3.org/2000/svg">
<path d="M26.4794 10.431V5.57473H28.3004C28.6735 5.57473 28.9865 5.63954 29.2394 5.76917C29.494 5.89879 29.686 6.08059 29.8156 6.31455C29.9469 6.54693 30.0125 6.81803 30.0125 7.12787C30.0125 7.43929 29.9461 7.70961 29.8133 7.93883C29.6821 8.16646 29.4884 8.34272 29.2323 8.46761C28.9762 8.59091 28.6617 8.65256 28.2886 8.65256H26.9915V7.92223H28.17C28.3882 7.92223 28.5668 7.89219 28.7059 7.83212C28.845 7.77047 28.9478 7.68115 29.0142 7.56417C29.0822 7.44561 29.1161 7.30018 29.1161 7.12787C29.1161 6.95556 29.0822 6.80855 29.0142 6.68683C28.9462 6.56352 28.8427 6.47026 28.7035 6.40702C28.5644 6.34221 28.385 6.3098 28.1653 6.3098H27.3591V10.431H26.4794ZM28.9881 8.23049L30.1903 10.431H29.2086L28.0278 8.23049H28.9881ZM32.3445 10.5021C31.9794 10.5021 31.664 10.4262 31.3984 10.2745C31.1344 10.1211 30.9313 9.90456 30.789 9.62476C30.6468 9.34337 30.5756 9.01219 30.5756 8.63122C30.5756 8.25657 30.6468 7.92776 30.789 7.6448C30.9329 7.36025 31.1336 7.13894 31.3913 6.98086C31.649 6.8212 31.9517 6.74136 32.2995 6.74136C32.524 6.74136 32.7358 6.77772 32.935 6.85044C33.1357 6.92158 33.3128 7.03223 33.4661 7.18241C33.621 7.33259 33.7428 7.52386 33.8313 7.75624C33.9198 7.98704 33.9641 8.2621 33.9641 8.58142V8.84463H30.9787V8.26605H33.1413C33.1397 8.10165 33.1041 7.95542 33.0346 7.82738C32.965 7.69775 32.8678 7.59579 32.7429 7.52149C32.6196 7.44719 32.4757 7.41005 32.3113 7.41005C32.1359 7.41005 31.9817 7.45273 31.849 7.53809C31.7162 7.62187 31.6126 7.73253 31.5383 7.87006C31.4656 8.00601 31.4285 8.1554 31.4269 8.31822V8.82329C31.4269 9.03512 31.4656 9.21691 31.5431 9.36867C31.6205 9.51884 31.7288 9.63424 31.8679 9.71486C32.007 9.7939 32.1699 9.83342 32.3564 9.83342C32.4813 9.83342 32.5943 9.81604 32.6955 9.78126C32.7967 9.7449 32.8844 9.69194 32.9587 9.62239C33.033 9.55283 33.0891 9.46668 33.127 9.36392L33.9285 9.45403C33.8779 9.66586 33.7815 9.85081 33.6392 10.0089C33.4985 10.1654 33.3183 10.2871 33.0986 10.3741C32.8789 10.4594 32.6275 10.5021 32.3445 10.5021ZM35.7383 10.5045C35.5075 10.5045 35.2997 10.4634 35.1147 10.3812C34.9313 10.2974 34.7859 10.1741 34.6784 10.0113C34.5725 9.84844 34.5195 9.64768 34.5195 9.40898C34.5195 9.20347 34.5575 9.03354 34.6334 8.89917C34.7092 8.7648 34.8128 8.6573 34.944 8.57668C35.0752 8.49606 35.223 8.4352 35.3874 8.3941C35.5534 8.35142 35.7249 8.32059 35.902 8.30162C36.1154 8.27949 36.2885 8.25973 36.4212 8.24234C36.554 8.22337 36.6505 8.19492 36.7105 8.15698C36.7722 8.11746 36.803 8.0566 36.803 7.97439V7.96017C36.803 7.78154 36.7501 7.64322 36.6441 7.5452C36.5382 7.44719 36.3857 7.39819 36.1865 7.39819C35.9762 7.39819 35.8095 7.44403 35.6862 7.53572C35.5644 7.62741 35.4822 7.73569 35.4396 7.86058L34.6381 7.74676C34.7013 7.52544 34.8057 7.34049 34.9511 7.19189C35.0965 7.04172 35.2744 6.92948 35.4846 6.85518C35.6949 6.7793 35.9272 6.74136 36.1818 6.74136C36.3572 6.74136 36.5319 6.76191 36.7058 6.80302C36.8797 6.84412 37.0386 6.91209 37.1824 7.00694C37.3263 7.10021 37.4417 7.22746 37.5286 7.38871C37.6171 7.54995 37.6614 7.7515 37.6614 7.99336V10.431H36.8362V9.93064H36.8078C36.7556 10.0318 36.6821 10.1267 36.5872 10.2152C36.494 10.3021 36.3762 10.3725 36.2339 10.4262C36.0932 10.4784 35.928 10.5045 35.7383 10.5045ZM35.9612 9.87373C36.1335 9.87373 36.2829 9.83975 36.4094 9.77177C36.5359 9.70222 36.6331 9.61053 36.701 9.49671C36.7706 9.38289 36.8054 9.2588 36.8054 9.12443V8.69524C36.7785 8.71737 36.7327 8.73792 36.6679 8.75689C36.6046 8.77586 36.5335 8.79246 36.4544 8.80669C36.3754 8.82092 36.2972 8.83356 36.2197 8.84463C36.1422 8.85569 36.075 8.86518 36.0181 8.87308C35.8901 8.89047 35.7755 8.91893 35.6743 8.95845C35.5731 8.99797 35.4933 9.0533 35.4348 9.12443C35.3763 9.19399 35.3471 9.28409 35.3471 9.39475C35.3471 9.55283 35.4048 9.67218 35.5202 9.7528C35.6356 9.83342 35.7826 9.87373 35.9612 9.87373ZM39.8761 10.495C39.59 10.495 39.3339 10.4215 39.1078 10.2745C38.8818 10.1275 38.7031 9.91405 38.5719 9.63424C38.4407 9.35444 38.3751 9.01457 38.3751 8.61462C38.3751 8.20993 38.4415 7.86848 38.5743 7.59026C38.7087 7.31046 38.8897 7.09942 39.1173 6.95714C39.345 6.81329 39.5987 6.74136 39.8785 6.74136C40.0919 6.74136 40.2674 6.77772 40.4049 6.85044C40.5424 6.92158 40.6515 7.00773 40.7321 7.1089C40.8127 7.20849 40.8752 7.30255 40.9194 7.39108H40.955V5.57473H41.8158V10.431H40.9716V9.85714H40.9194C40.8752 9.94566 40.8111 10.0397 40.7274 10.1393C40.6436 10.2373 40.5329 10.3211 40.3954 10.3907C40.2579 10.4602 40.0848 10.495 39.8761 10.495ZM40.1156 9.79074C40.2974 9.79074 40.4523 9.74174 40.5804 9.64373C40.7084 9.54414 40.8056 9.40582 40.872 9.22877C40.9384 9.05171 40.9716 8.84542 40.9716 8.60988C40.9716 8.37434 40.9384 8.16962 40.872 7.99574C40.8072 7.82185 40.7108 7.68669 40.5827 7.59026C40.4563 7.49383 40.3005 7.44561 40.1156 7.44561C39.9243 7.44561 39.7647 7.49541 39.6366 7.595C39.5086 7.69459 39.4121 7.83212 39.3473 8.00759C39.2825 8.18306 39.2501 8.38382 39.2501 8.60988C39.2501 8.83752 39.2825 9.04065 39.3473 9.21928C39.4137 9.39633 39.5109 9.53623 39.639 9.63898C39.7686 9.74016 39.9275 9.79074 40.1156 9.79074ZM42.7304 10.431V6.78879H43.5509V7.40767H43.5936C43.6694 7.19901 43.7951 7.03618 43.9706 6.91921C44.1461 6.80064 44.3555 6.74136 44.599 6.74136C44.8456 6.74136 45.0534 6.80144 45.2226 6.92158C45.3933 7.04014 45.5135 7.20217 45.583 7.40767H45.621C45.7016 7.20533 45.8375 7.04409 46.0288 6.92395C46.2217 6.80223 46.4501 6.74136 46.7141 6.74136C47.0492 6.74136 47.3227 6.84728 47.5345 7.05911C47.7463 7.27093 47.8523 7.57998 47.8523 7.98625V10.431H46.9915V8.11904C46.9915 7.89298 46.9314 7.72779 46.8113 7.62345C46.6912 7.51754 46.5441 7.46458 46.3703 7.46458C46.1632 7.46458 46.0011 7.5294 45.8842 7.65902C45.7688 7.78707 45.7111 7.95384 45.7111 8.15935V10.431H44.8693V8.08347C44.8693 7.89535 44.8124 7.74518 44.6986 7.63294C44.5863 7.5207 44.4393 7.46458 44.2575 7.46458C44.1342 7.46458 44.022 7.4962 43.9208 7.55943C43.8196 7.62108 43.739 7.70882 43.6789 7.82264C43.6189 7.93487 43.5888 8.06608 43.5888 8.21626V10.431H42.7304ZM50.3118 10.5021C49.9561 10.5021 49.6479 10.4239 49.387 10.2674C49.1262 10.1109 48.9239 9.89191 48.78 9.61053C48.6377 9.32915 48.5666 9.00034 48.5666 8.62411C48.5666 8.24787 48.6377 7.91828 48.78 7.63531C48.9239 7.35235 49.1262 7.13261 49.387 6.97611C49.6479 6.81961 49.9561 6.74136 50.3118 6.74136C50.6675 6.74136 50.9757 6.81961 51.2366 6.97611C51.4974 7.13261 51.699 7.35235 51.8412 7.63531C51.9851 7.91828 52.057 8.24787 52.057 8.62411C52.057 9.00034 51.9851 9.32915 51.8412 9.61053C51.699 9.89191 51.4974 10.1109 51.2366 10.2674C50.9757 10.4239 50.6675 10.5021 50.3118 10.5021ZM50.3165 9.81445C50.5094 9.81445 50.6706 9.7615 50.8003 9.65558C50.9299 9.54809 51.0263 9.40423 51.0896 9.22402C51.1544 9.04381 51.1868 8.84305 51.1868 8.62173C51.1868 8.39884 51.1544 8.19729 51.0896 8.01708C51.0263 7.83528 50.9299 7.69064 50.8003 7.58314C50.6706 7.47565 50.5094 7.4219 50.3165 7.4219C50.1189 7.4219 49.9545 7.47565 49.8233 7.58314C49.6937 7.69064 49.5965 7.83528 49.5317 8.01708C49.4684 8.19729 49.4368 8.39884 49.4368 8.62173C49.4368 8.84305 49.4684 9.04381 49.5317 9.22402C49.5965 9.40423 49.6937 9.54809 49.8233 9.65558C49.9545 9.7615 50.1189 9.81445 50.3165 9.81445ZM52.7856 10.431V6.78879H53.6179V7.39582H53.6558C53.7222 7.18557 53.836 7.02354 53.9973 6.90972C54.1601 6.79432 54.3458 6.73662 54.5545 6.73662C54.6019 6.73662 54.6549 6.73899 54.7134 6.74374C54.7734 6.7469 54.8232 6.75243 54.8627 6.76033V7.54995C54.8264 7.5373 54.7687 7.52624 54.6897 7.51675C54.6122 7.50568 54.5371 7.50015 54.4644 7.50015C54.3079 7.50015 54.1672 7.53414 54.0423 7.60211C53.919 7.66851 53.8218 7.76099 53.7507 7.87955C53.6795 7.99811 53.6439 8.13485 53.6439 8.28977V10.431H52.7856ZM56.8955 10.5021C56.5303 10.5021 56.2149 10.4262 55.9494 10.2745C55.6854 10.1211 55.4822 9.90456 55.34 9.62476C55.1977 9.34337 55.1265 9.01219 55.1265 8.63122C55.1265 8.25657 55.1977 7.92776 55.34 7.6448C55.4838 7.36025 55.6846 7.13894 55.9422 6.98086C56.1999 6.8212 56.5026 6.74136 56.8504 6.74136C57.0749 6.74136 57.2867 6.77772 57.4859 6.85044C57.6867 6.92158 57.8637 7.03223 58.0171 7.18241C58.172 7.33259 58.2937 7.52386 58.3822 7.75624C58.4707 7.98704 58.515 8.2621 58.515 8.58142V8.84463H55.5297V8.26605H57.6922C57.6906 8.10165 57.655 7.95542 57.5855 7.82738C57.5159 7.69775 57.4187 7.59579 57.2938 7.52149C57.1705 7.44719 57.0267 7.41005 56.8623 7.41005C56.6868 7.41005 56.5327 7.45273 56.3999 7.53809C56.2671 7.62187 56.1636 7.73253 56.0893 7.87006C56.0165 8.00601 55.9794 8.1554 55.9778 8.31822V8.82329C55.9778 9.03512 56.0165 9.21691 56.094 9.36867C56.1715 9.51884 56.2797 9.63424 56.4189 9.71486C56.558 9.7939 56.7208 9.83342 56.9073 9.83342C57.0322 9.83342 57.1452 9.81604 57.2464 9.78126C57.3476 9.7449 57.4353 9.69194 57.5096 9.62239C57.5839 9.55283 57.64 9.46668 57.678 9.36392L58.4794 9.45403C58.4289 9.66586 58.3324 9.85081 58.1902 10.0089C58.0495 10.1654 57.8692 10.2871 57.6495 10.3741C57.4298 10.4594 57.1784 10.5021 56.8955 10.5021Z" fill="#4CAF4F"/>
<path d="M67.0131 9.76645L68.1125 8.66707C68.2429 8.53668 68.2429 8.32529 68.1125 8.19491L67.0131 7.09552M68.0147 8.43099L63.3406 8.43099" stroke="#4CAF4F" stroke-width="0.5008" stroke-linecap="round"/>
</svg>
